<svg width="123" height="37" viewBox="0 0 123 37" fill="none" xmlns="http://www.w3.org/2000/svg">
<g clip-path="url(#clip0_20_38)">
<path d="M31.6972 12.8391C33.8838 11.8872 34.9202 9.29953 33.4884 7.39247C31.8119 5.15969 29.6401 3.31985 27.1214 2.03098C23.3112 0.0812662 18.9428 -0.487 14.7606 0.423012C10.5784 1.33302 6.84108 3.66501 4.18549 7.02162C1.5299 10.3782 0.120334 14.5518 0.196951 18.8312C0.273568 23.1105 1.83164 27.231 4.60568 30.4904C7.37972 33.7498 11.1981 35.9465 15.4102 36.7062C19.6223 37.4659 23.9675 36.7417 27.7055 34.6568C30.1765 33.2786 32.2811 31.3622 33.8765 29.0709C35.2392 27.1138 34.1107 24.5648 31.8915 23.6918C29.6723 22.8188 27.2084 24.0218 25.4769 25.6617C24.8847 26.2227 24.2211 26.7118 23.4988 27.1146C21.5058 28.2263 19.189 28.6124 16.9431 28.2074C14.6973 27.8023 12.6613 26.631 11.1823 24.8931C9.70316 23.1553 8.87241 20.9583 8.83156 18.6766C8.79071 16.3948 9.54228 14.1695 10.9582 12.3798C12.3742 10.5901 14.3668 9.34675 16.5968 8.86154C18.8267 8.37633 21.1558 8.67933 23.1874 9.7189C23.9236 10.0956 24.6042 10.5606 25.2162 11.1C27.0053 12.6769 29.5107 13.791 31.6972 12.8391Z" fill="#CBCBCB"/>
<path d="M33.6972 12.8391C35.8838 11.8872 36.9202 9.2995 35.4884 7.39244C33.8119 5.15966 31.6401 3.31982 29.1214 2.03095C25.3112 0.0812356 20.9428 -0.48703 16.7606 0.422982C12.5784 1.33299 8.84108 3.66498 6.18549 7.02159C3.5299 10.3782 2.12033 14.5518 2.19695 18.8312C2.27356 23.1105 3.83163 27.231 6.60567 30.4904C9.37971 33.7498 13.1981 35.9465 17.4102 36.7062C21.6223 37.4659 25.9675 36.7417 29.7055 34.6568C32.1765 33.2786 34.2811 31.3622 35.8765 29.0709C37.2392 27.1138 36.1107 24.5648 33.8915 23.6918C31.6723 22.8188 29.2084 24.0218 27.4769 25.6617C26.8847 26.2227 26.2211 26.7118 25.4988 27.1146C23.5058 28.2263 21.189 28.6124 18.9431 28.2074C16.6973 27.8023 14.6613 26.631 13.1823 24.8931C11.7032 23.1553 10.8724 20.9583 10.8316 18.6766C10.7907 16.3948 11.5423 14.1695 12.9582 12.3798C14.3742 10.5901 16.3668 9.34672 18.5968 8.86151C20.8267 8.3763 23.1558 8.6793 25.1874 9.71887C25.9236 10.0956 26.6042 10.5606 27.2162 11.1C29.0053 12.6769 31.5107 13.791 33.6972 12.8391Z" fill="#858585"/>
<path d="M35.6972 12.8391C37.8838 11.8872 38.9202 9.2995 37.4884 7.39244C35.8119 5.15966 33.6401 3.31982 31.1214 2.03095C27.3112 0.0812356 22.9428 -0.48703 18.7606 0.422982C14.5784 1.33299 10.8411 3.66498 8.18549 7.02159C5.5299 10.3782 4.12033 14.5518 4.19695 18.8312C4.27356 23.1105 5.83163 27.231 8.60567 30.4904C11.3797 33.7498 15.1981 35.9465 19.4102 36.7062C23.6223 37.4659 27.9675 36.7417 31.7055 34.6568C34.1765 33.2786 36.2811 31.3622 37.8765 29.0709C39.2392 27.1138 38.1107 24.5648 35.8915 23.6918C33.6723 22.8188 31.2084 24.0218 29.4769 25.6617C28.8847 26.2227 28.2211 26.7118 27.4988 27.1146C25.5058 28.2263 23.189 28.6124 20.9431 28.2074C18.6973 27.8023 16.6613 26.631 15.1823 24.8931C13.7032 23.1553 12.8724 20.9583 12.8316 18.6766C12.7907 16.3948 13.5423 14.1695 14.9582 12.3798C16.3742 10.5901 18.3668 9.34672 20.5968 8.86151C22.8267 8.3763 25.1558 8.6793 27.1874 9.71887C27.9236 10.0956 28.6042 10.5606 29.2162 11.1C31.0053 12.6769 33.5107 13.791 35.6972 12.8391Z" fill="#BDBBBB"/>
<path d="M43.5327 23.28C43.5327 24.3867 43.726 25.1867 44.1127 25.68C44.4993 26.16 45.106 26.4 45.9327 26.4C46.6927 26.4 47.4127 26.2267 48.0927 25.88C48.786 25.52 49.366 25.0267 49.8327 24.4L49.4941 24.92C49.0541 26.0533 49.086 26.64 47.9927 27.32C46.9127 27.9867 45.7793 28.32 44.5927 28.32C43.046 28.32 41.926 27.9333 41.2327 27.16C40.5527 26.3733 40.2127 25.12 40.2127 23.4C40.2127 22.2933 40.3527 21.14 40.6327 19.94C40.9127 18.74 41.2993 17.6667 41.7927 16.72C42.4327 15.5067 43.206 14.5867 44.1127 13.96C45.0327 13.32 46.0593 13 47.1927 13C48.2593 13 49.0793 13.2333 49.6527 13.7C50.2393 14.1533 50.5327 14.8133 50.5327 15.68C50.5327 16.28 50.4127 16.74 50.1727 17.06C49.9327 17.3667 49.586 17.52 49.1327 17.52C48.906 17.52 48.6927 17.48 48.4927 17.4C48.306 17.3067 48.1393 17.1733 47.9927 17C48.2327 16.88 48.446 16.64 48.6327 16.28C48.8193 15.9067 48.9127 15.5333 48.9127 15.16C48.9127 14.7733 48.806 14.4733 48.5927 14.26C48.3793 14.0467 48.0793 13.94 47.6927 13.94C47.106 13.94 46.526 14.3 45.9527 15.02C45.3793 15.7267 44.8793 16.7067 44.4527 17.96C44.1593 18.8133 43.9327 19.7067 43.7727 20.64C43.6127 21.56 43.5327 22.44 43.5327 23.28Z" fill="#AAAAAA"/>
<path d="M49.4941 24.92C49.4941 24.16 49.6141 23.3533 49.8541 22.5C50.1074 21.6467 50.4474 20.8867 50.8741 20.22C51.3674 19.4333 51.9607 18.84 52.6541 18.44C53.3474 18.0267 54.1207 17.82 54.9741 17.82C55.8274 17.82 56.4674 18.0867 56.8941 18.62C57.3207 19.1533 57.5341 19.9533 57.5341 21.02C57.5607 21.0333 57.5874 21.0467 57.6141 21.06C57.6541 21.06 57.7007 21.06 57.7541 21.06C58.1674 21.06 58.6607 20.9467 59.2341 20.72C59.8074 20.4933 60.3407 20.2067 60.8341 19.86L60.1495 20.34C59.7762 20.74 59.9351 20.72 59.5141 21.44C58.9007 21.7333 58.2207 21.94 57.4741 22.06C57.3141 23.86 56.7941 25.3133 55.9141 26.42C55.0341 27.5267 53.9607 28.08 52.6941 28.08C51.6541 28.08 50.8607 27.8133 50.3141 27.28C49.7674 26.7467 49.4941 25.96 49.4941 24.92ZM55.1341 19.04C54.4941 19.04 53.8874 19.6867 53.3141 20.98C52.7541 22.2733 52.4741 23.5 52.4741 24.66C52.4741 25.2867 52.5407 25.7133 52.6741 25.94C52.8207 26.1667 53.0941 26.28 53.4941 26.28C53.9874 26.28 54.4541 25.88 54.8941 25.08C55.3474 24.28 55.6541 23.2933 55.8141 22.12C55.6274 22.08 55.4874 21.9933 55.3941 21.86C55.3141 21.7133 55.2741 21.52 55.2741 21.28C55.2741 21.0267 55.3274 20.8067 55.4341 20.62C55.5407 20.4333 55.6941 20.2933 55.8941 20.2C55.8674 19.7733 55.7941 19.4733 55.6741 19.3C55.5674 19.1267 55.3874 19.04 55.1341 19.04Z" fill="#AAAAAA"/>
<path d="M61.8295 24.62C61.8295 25.14 61.9029 25.5333 62.0495 25.8C62.1962 26.0533 62.4562 26.18 62.8295 26.18C63.1629 26.18 63.4896 26.0267 63.8096 25.72C64.1296 25.4 64.3496 25 64.4696 24.52V24.42L65.4495 19.84C65.4095 19.6267 65.3162 19.46 65.1695 19.34C65.0362 19.2067 64.8562 19.14 64.6295 19.14C63.8962 19.14 63.2429 19.7533 62.6695 20.98C62.1095 22.2067 61.8295 23.42 61.8295 24.62ZM65.6295 18.92V19L66.6096 14.4L69.5695 14L67.2695 24.8C67.2429 24.92 67.2229 25.0333 67.2095 25.14C67.1962 25.2333 67.1896 25.3333 67.1896 25.44C67.1896 25.7067 67.2496 25.9 67.3696 26.02C67.5029 26.1267 67.7162 26.18 68.0096 26.18C68.3562 26.18 68.6695 26.0267 68.9495 25.72C69.2295 25.4133 68.8092 26.28 68.9825 25.72L68.8495 27.1C68.1962 27.7 67.3962 28 66.4495 28C65.9029 28 65.4562 27.8533 65.1096 27.56C64.7762 27.2533 64.5695 26.8267 64.4895 26.28C64.0895 26.8933 63.6429 27.3533 63.1495 27.66C62.6562 27.9667 62.1162 28.12 61.5295 28.12C60.7029 28.12 60.0495 27.84 59.5695 27.28C59.1029 26.72 58.8695 25.9267 58.8695 24.9C58.8695 24.1533 58.9829 23.3733 59.2095 22.56C59.4362 21.7467 59.7495 21.0067 60.1495 20.34C60.6429 19.5533 61.2162 18.9533 61.8695 18.54C62.5229 18.1133 63.2362 17.9 64.0095 17.9C64.5295 17.9 64.9295 17.9933 65.2095 18.18C65.4895 18.3533 65.6295 18.6 65.6295 18.92Z" fill="#AAAAAA"/>
<path d="M76.5281 19.74C76.5281 20.8467 76.0748 21.8133 75.1681 22.64C74.2615 23.4533 73.1815 23.8933 71.9281 23.96C71.9148 24.1867 71.9015 24.36 71.8881 24.48C71.8881 24.5867 71.8881 24.68 71.8881 24.76C71.8881 25.3733 71.9881 25.8067 72.1881 26.06C72.4015 26.3133 72.7815 26.44 73.3281 26.44C73.9548 26.44 74.5281 26.3 75.0481 26.02C75.5815 25.7267 76.1881 25.1933 76.8681 24.42C76.0948 25.6733 75.9348 26.6067 75.0281 27.22C74.1215 27.82 73.1281 28.12 72.0481 28.12C71.0215 28.12 70.2415 27.8533 69.7081 27.32C69.1881 26.7867 68.9281 25.9933 68.9281 24.94C68.9281 24.18 69.0481 23.3733 69.2881 22.52C69.5281 21.6667 69.8481 20.9067 70.2481 20.24C70.7415 19.44 71.3281 18.84 72.0081 18.44C72.7015 18.0267 73.4748 17.82 74.3281 17.82C75.0615 17.82 75.6081 17.98 75.9681 18.3C76.3415 18.6067 76.5281 19.0867 76.5281 19.74ZM74.4881 18.88C74.0348 18.88 73.5748 19.2867 73.1081 20.1C72.6548 20.9 72.3148 21.8667 72.0881 23C72.8615 22.9467 73.5348 22.5933 74.1081 21.94C74.6948 21.2733 74.9881 20.5267 74.9881 19.7C74.9881 19.42 74.9481 19.2133 74.8681 19.08C74.7881 18.9467 74.6615 18.88 74.4881 18.88Z" fill="#AAAAAA"/>
<path d="M79.4239 25.92C79.4773 26.0667 79.5706 26.18 79.7039 26.26C79.8373 26.34 79.9973 26.38 80.1839 26.38C81.0239 26.38 81.6973 25.84 82.2039 24.76C82.7239 23.68 82.9839 22.4267 82.9839 21C82.9839 20.4533 82.9039 20.04 82.7439 19.76C82.5839 19.48 82.3306 19.34 81.9839 19.34C81.7439 19.34 81.4973 19.4333 81.2439 19.62C80.9906 19.7933 80.7773 20.0267 80.6039 20.32L79.4239 25.92ZM78.0639 32.28L75.0439 33L78.3839 17.26H81.2639L80.9439 18.76C81.2773 18.48 81.6373 18.2667 82.0239 18.12C82.4106 17.9733 82.8306 17.9 83.2839 17.9C84.0839 17.9 84.6906 18.1667 85.1039 18.7C85.5173 19.2333 85.7239 20.02 85.7239 21.06C85.7239 23.1 85.2839 24.7867 84.4039 26.12C83.5373 27.4533 82.3373 28.12 80.8039 28.12C80.3773 28.12 80.0173 28.06 79.7239 27.94C79.4439 27.82 79.2373 27.64 79.1039 27.4L78.0639 32.28Z" fill="#AAAAAA"/>
<path d="M92.778 18.92V19.06L92.998 18H95.878L94.438 24.8C94.4113 24.92 94.3913 25.0333 94.378 25.14C94.3647 25.2333 94.358 25.3333 94.358 25.44C94.358 25.7333 94.4247 25.9533 94.558 26.1C94.6913 26.2333 94.898 26.3 95.178 26.3C95.5247 26.3 95.838 26.14 96.118 25.82C96.398 25.4867 96.6247 25.02 96.798 24.42H96.8053C96.3787 25.6467 96.658 26.5733 95.978 27.2C95.298 27.8133 94.5113 28.12 93.618 28.12C93.0447 28.12 92.5847 27.96 92.238 27.64C91.9047 27.32 91.7113 26.8667 91.658 26.28C91.2447 26.8933 90.7847 27.3533 90.278 27.66C89.7847 27.9667 89.2513 28.12 88.678 28.12C87.8513 28.12 87.198 27.84 86.718 27.28C86.2513 26.72 86.018 25.9267 86.018 24.9C86.018 24.1533 86.1313 23.3733 86.358 22.56C86.5847 21.7467 86.898 21.0067 87.298 20.34C87.7913 19.5533 88.3647 18.9533 89.018 18.54C89.6713 18.1133 90.3847 17.9 91.158 17.9C91.678 17.9 92.078 17.9933 92.358 18.18C92.638 18.3533 92.778 18.6 92.778 18.92ZM92.598 19.9C92.598 19.7 92.5247 19.5267 92.378 19.38C92.2313 19.22 92.0313 19.14 91.778 19.14C91.0447 19.14 90.3913 19.7533 89.818 20.98C89.258 22.2067 88.978 23.42 88.978 24.62C88.978 25.14 89.0513 25.5333 89.198 25.8C89.3447 26.0533 89.6047 26.18 89.978 26.18C90.3247 26.18 90.658 26.0133 90.978 25.68C91.3113 25.3467 91.5313 24.9267 91.638 24.42L92.598 19.9Z" fill="#AAAAAA"/>
<path d="M96.6453 25.72C96.6453 25.5467 96.6587 25.3533 96.6853 25.14C96.712 24.9133 96.752 24.6733 96.8053 24.42L98.1653 18H101.045L99.6053 24.8C99.592 24.88 99.5787 24.9667 99.5653 25.06C99.552 25.14 99.5453 25.22 99.5453 25.3C99.5453 25.58 99.592 25.8 99.6853 25.96C99.792 26.1067 99.9453 26.18 100.145 26.18C100.492 26.18 100.799 26.0333 101.065 25.74C101.345 25.4333 101.572 24.9933 101.745 24.42L103.105 18H105.985L104.545 24.8C104.519 24.9467 104.492 25.0867 104.465 25.22C104.452 25.34 104.445 25.44 104.445 25.52C104.445 25.7333 104.499 25.9 104.605 26.02C104.725 26.1267 104.899 26.18 105.125 26.18C105.592 26.18 106.045 25.94 106.485 25.46C106.939 24.9667 107.345 24.2733 107.705 23.38C107.972 22.74 108.185 22.0667 108.345 21.36C108.505 20.6533 108.585 20.0333 108.585 19.5C108.559 19.5533 108.472 19.6 108.325 19.64C108.192 19.68 108.065 19.7 107.945 19.7C107.732 19.7 107.559 19.6 107.425 19.4C107.292 19.1867 107.225 18.9467 107.225 18.68C107.225 18.3467 107.332 18.0867 107.545 17.9C107.772 17.7 108.079 17.6 108.465 17.6C108.879 17.6 109.192 17.7533 109.405 18.06C109.619 18.3667 109.725 18.7933 109.725 19.34C109.725 20.2467 109.605 21.2 109.365 22.2C109.139 23.1867 108.825 24.0867 108.425 24.9C107.892 25.9533 107.252 26.7533 106.505 27.3C105.759 27.8467 104.932 28.12 104.025 28.12C103.359 28.12 102.819 27.98 102.405 27.7C102.005 27.4067 101.745 26.9867 101.625 26.44C101.239 27 100.812 27.42 100.345 27.7C99.892 27.98 99.372 28.12 98.7853 28.12C98.1187 28.12 97.592 27.9133 97.2053 27.5C96.832 27.0733 96.6453 26.48 96.6453 25.72Z" fill="#AAAAAA"/>
<path d="M116.528 18.92V19.06L116.748 18H119.628L118.188 24.8C118.161 24.92 118.141 25.0333 118.128 25.14C118.115 25.2333 118.108 25.3333 118.108 25.44C118.108 25.7333 118.175 25.9533 118.308 26.1C118.441 26.2333 118.648 26.3 118.928 26.3C119.275 26.3 119.588 26.14 119.868 25.82C120.148 25.4867 120.375 25.02 120.548 24.42H121.388C120.961 25.6467 120.408 26.5733 119.728 27.2C119.048 27.8133 118.261 28.12 117.368 28.12C116.795 28.12 116.335 27.96 115.988 27.64C115.655 27.32 115.461 26.8667 115.408 26.28C114.995 26.8933 114.535 27.3533 114.028 27.66C113.535 27.9667 113.001 28.12 112.428 28.12C111.601 28.12 110.948 27.84 110.468 27.28C110.001 26.72 109.768 25.9267 109.768 24.9C109.768 24.1533 109.881 23.3733 110.108 22.56C110.335 21.7467 110.648 21.0067 111.048 20.34C111.541 19.5533 112.115 18.9533 112.768 18.54C113.421 18.1133 114.135 17.9 114.908 17.9C115.428 17.9 115.828 17.9933 116.108 18.18C116.388 18.3533 116.528 18.6 116.528 18.92ZM116.348 19.9C116.348 19.7 116.275 19.5267 116.128 19.38C115.981 19.22 115.781 19.14 115.528 19.14C114.795 19.14 114.141 19.7533 113.568 20.98C113.008 22.2067 112.728 23.42 112.728 24.62C112.728 25.14 112.801 25.5333 112.948 25.8C113.095 26.0533 113.355 26.18 113.728 26.18C114.075 26.18 114.408 26.0133 114.728 25.68C115.061 25.3467 115.281 24.9267 115.388 24.42L116.348 19.9Z" fill="#AAAAAA"/>
</g>
<defs>
<clipPath id="clip0_20_38">
<rect width="122" height="37" fill="white" transform="translate(0.193985)"/>
</clipPath>
</defs>
</svg>
